<svg width="22" height="21" viewBox="0 0 22 21" fill="none" xmlns="http://www.w3.org/2000/svg">
    <path fill-rule="evenodd" clip-rule="evenodd"
          d="M21.6325 12.4813V20.3605H17.0315V12.9989C17.0315 11.1585 16.3989 9.89329 14.731 9.89329C13.4658 9.89329 12.7181 10.756 12.373 11.5611C12.258 11.8487 12.2005 12.2513 12.2005 12.6539V20.3605H7.59952C7.59952 20.3605 7.65703 7.88037 7.59952 6.61511H12.2005V8.57052C12.2005 8.57052 12.2005 8.62801 12.143 8.62801H12.2005V8.57052C12.8331 7.65032 13.8684 6.27003 16.3414 6.27003C19.332 6.27003 21.6325 8.28296 21.6325 12.4813ZM2.88298 0.0012207C1.33014 0.0012207 0.294922 1.03644 0.294922 2.35921C0.294922 3.68198 1.27263 4.71721 2.82546 4.71721H2.88298C4.49333 4.71721 5.47103 3.68199 5.47103 2.35921C5.41352 1.03644 4.43581 0.0012207 2.88298 0.0012207ZM0.525568 20.3605H5.06905V6.61513H0.525568V20.3605Z"
          fill="#081420"/>
</svg>
