<svg width="16" height="21" viewBox="0 0 16 21" fill="none" xmlns="http://www.w3.org/2000/svg">
<path d="M12.6161 1.18514C9.71458 0.698703 6.73665 0.698703 3.83508 1.18514C2.77504 1.36285 1.93085 2.17665 1.71831 3.23184C0.744596 8.06584 0.691467 13.0401 1.56171 17.8938L1.91601 19.8699C2.02526 20.4793 2.7681 20.7228 3.21691 20.2964L7.49357 16.2336C7.9038 15.8439 8.54743 15.8439 8.95766 16.2336L13.2343 20.2964C13.6831 20.7228 14.426 20.4793 14.5352 19.8699L14.8895 17.8938C15.7598 13.0401 15.7066 8.06583 14.7329 3.23184C14.5204 2.17665 13.6762 1.36285 12.6161 1.18514Z" fill="#6C5FBC"/>
</svg>
